# xmcd
# 
# Track frame offsets:
#     150
#     24700
#     45079
#     66661
#     82670
#     98269
#     113828
#     140042
#     162818
#     183297
#     212049
#     224755
#     238748
# 
# Disc length: 3500
# 
# Revision: 1
# Processed by: cddbd v1.5.2PL0 Copyright (c) Steve Scherf et al.
# Submitted via: fre:ac v1.0.31
# 
DISCID=af0daa0d
DTITLE=Elvin Bishop - Raisin' Hell Revue
DYEAR=2011
DGENRE=Rock/Pop
TTITLE0=Callin' All Cows
TTITLE1=Whole Lotta Lovin'
TTITLE2=Fooled Around And Fell In Love
TTITLE3=What The Hell Is Goin' On
TTITLE4=The Night Time Is The Right Time
TTITLE5=Down In Virginia
TTITLE6=Rock My Soul
TTITLE7=Cryin' Fool
TTITLE8=River's Invitation
TTITLE9=Albert Collins Story - Dyin' Flu
TTITLE10=Tore Up Over You
TTITLE11=It Hurts Me Too
TTITLE12=Bye Bye Baby
EXTD=
EXTT0=
EXTT1=
EXTT2=
EXTT3=
EXTT4=
EXTT5=
EXTT6=
EXTT7=
EXTT8=
EXTT9=
EXTT10=
EXTT11=
EXTT12=
PLAYORDER=
